<?xml version="1.0" encoding="UTF-8"?>
<svg width="450px" height="160px" viewBox="0 0 450 160" version="1.1" xmlns="http://www.w3.org/2000/svg" xmlns:xlink="http://www.w3.org/1999/xlink">
    <!-- Generator: Sketch 59.1 (86144) - https://sketch.com -->
    <title>eg_logo</title>
    <desc>Created with Sketch.</desc>
    <defs>
        <path d="M31.8058798,153.097001 C-10.557395,128.976483 -10.4267508,29.1875287 31.1490319,5.75512312 C72.7248146,-17.6772825 158.972233,35.1172372 158.972233,79.9870497 C158.972233,124.856862 74.1691545,177.217519 31.8058798,153.097001 Z" id="path-1"></path>
        <linearGradient x1="50%" y1="100%" x2="50%" y2="-2.48949813e-15%" id="linearGradient-3">
            <stop stop-color="#FFA246" offset="0%"></stop>
            <stop stop-color="#E14A53" offset="100%"></stop>
        </linearGradient>
    </defs>
    <g id="Page-1" stroke="none" stroke-width="1" fill="none" fill-rule="evenodd">
        <g id="one-pager-copy-5" transform="translate(-200.000000, -184.000000)">
            <g id="eg_logo" transform="translate(200.000000, 184.000000)">
                <g id="Group-Copy-8">
                    <g id="Triangle-Copy-40">
                        <mask id="mask-2" fill="white">
                            <use xlink:href="#path-1"></use>
                        </mask>
                        <use id="Mask" fill="#FA994D" fill-rule="nonzero" xlink:href="#path-1"></use>
                        <path d="M31.8058798,155.750063 C-10.557395,131.629545 -10.4267508,31.8405899 31.1490319,8.40818434 C72.7248146,-15.0242212 158.972233,37.7702984 158.972233,82.6401109 C158.972233,127.509924 74.1691545,179.870581 31.8058798,155.750063 Z" fill="url(#linearGradient-3)" fill-rule="nonzero" mask="url(#mask-2)"></path>
                    </g>
                    <path d="M0.00505767575,77.3991954 C0.26852861,107.995719 10.8263424,138.498752 31.8058798,150.44394 C74.1691545,174.564458 158.972233,122.203801 158.972233,77.3339885 L158.947321,78.6607039 C158.963887,79.1035326 158.972233,79.5456746 158.972233,79.9870497 C158.972233,124.856862 74.1691545,177.217519 31.8058798,153.097001 C10.6242424,141.036742 0.0660847199,110.059374 0.000309257789,79.1680201 Z" id="Combined-Shape" fill="#DB466C" fill-rule="nonzero"></path>
                </g>
                <path d="M29.8775064,62.1652041 C39.5820988,62.1652041 45.9436377,69.9652041 45.9436377,79.3252041 C45.9436377,79.8777041 45.9111808,80.3977041 45.878724,80.9177041 C45.7813535,81.8602041 45.1971306,82.2827041 44.3207961,82.2827041 L20.1326678,82.2827041 C21.1991988,87.6094539 25.1576336,90.3427041 30.1047042,90.3427041 C33.1881031,90.3427041 35.7521928,89.0427041 37.1478365,87.2227041 C37.6671458,86.6702041 38.1539983,86.3452041 38.9329622,86.3452041 L43.0874365,86.3127041 C44.158512,86.3127041 44.7427349,86.9627041 44.3207961,87.8727041 C41.9514475,93.1702041 36.6285272,96.3552041 30.0073337,96.3552041 C19.6536047,96.3552041 12.870127,89.0102041 12.870127,79.2602041 C12.870127,69.6402041 19.7185183,62.1652041 29.8775064,62.1652041 Z M20.106053,76.4977041 L38.8914165,76.4977041 C37.97159,70.9629545 34.0241904,68.5677041 29.8456983,68.5677041 C24.6110607,68.5677041 21.0602836,71.6350542 20.106053,76.4977041 Z M82.5135086,63.0102021 C83.4547567,63.0102021 83.974066,63.5302021 83.974066,64.4727021 L83.974066,94.0477021 C83.974066,94.9902021 83.4547567,95.5102021 82.5135086,95.5102021 L78.4239479,95.5102021 C77.4826998,95.5102021 76.9633905,94.9902021 76.9633905,94.0477021 L76.9633905,90.8458025 C74.5070578,94.2576528 70.6888358,96.3552031 65.5716917,96.3552031 C56.7434337,96.3552031 49.4406467,88.9127031 49.4406467,79.2602031 C49.4406467,69.6077031 56.7434337,62.1652031 65.5716917,62.1652031 C70.6888358,62.1652031 74.5070578,64.2627534 76.9633905,67.6746037 L76.9633905,64.4727041 C76.9633905,63.5302041 77.4826998,63.0102041 78.4239479,63.0102041 L82.5135086,63.0102041 L82.5135086,63.0102021 Z M66.707032,89.6602021 C72.5492615,89.6602021 76.9633905,85.3052021 76.9633905,79.2602021 C76.9633905,73.2152021 72.5492615,68.8602021 66.707032,68.8602021 C60.8648024,68.8602021 56.4506734,73.2152021 56.4506734,79.2602021 C56.4506734,85.3052021 60.8648024,89.6602021 66.707032,89.6602021 Z M97.4671302,72.1427041 C97.4671302,78.6752041 115.480671,73.9627041 115.480671,86.3777041 C115.480671,92.7802041 109.898096,96.3552041 102.725137,96.3552041 C96.0714865,96.3552041 90.7810231,93.1702041 90.0669728,86.9952041 C89.9696023,85.9877041 90.5538252,85.4677041 91.4950733,85.4677041 L95.5197204,85.4677041 C96.3960548,85.4677041 96.7530799,85.9552041 97.0776482,86.7677041 C97.6294144,89.1077041 99.9013925,90.0502041 102.725137,90.0502041 C106.133104,90.0502041 108.469996,88.8477041 108.469996,86.3777041 C108.469996,79.9102041 90.4564548,84.5252041 90.4564548,72.1427041 C90.4564548,65.8052041 96.0390297,62.1652041 102.725137,62.1652041 C108.794564,62.1652041 114.020114,65.3502041 114.734164,71.5252041 C114.831535,72.5327041 114.247312,73.0527041 113.306064,73.0527041 L109.281417,73.0527041 C108.405082,73.0527041 108.048057,72.5652041 107.723489,71.7202041 C107.204179,69.4127041 105.029572,68.4702041 102.725137,68.4702041 C99.804022,68.4702041 97.4671302,69.6727041 97.4671302,72.1427041 Z M139.976601,64.2127041 C140.236256,63.4002041 140.820479,63.0102041 141.6319,63.0102041 L146.078485,63.0102041 C147.117104,63.0102041 147.636413,63.6277041 147.279388,64.6677041 L132.641357,107.340204 C132.381703,108.152704 131.765023,108.510204 130.953602,108.510204 L126.507016,108.510204 C125.468398,108.510204 124.949089,107.892704 125.306114,106.852704 L129.330761,95.1202041 L117.35419,64.7002041 C116.964708,63.6927041 117.419104,63.0102041 118.490179,63.0102041 L122.904308,63.0102041 C123.715729,63.0102041 124.267495,63.3677041 124.559607,64.1477041 L132.836098,85.4027041 L139.976601,64.2127041 Z" id="easy-copy-6" fill="#FFFFFF"></path>
                <path d="M199.616796,63.0102041 C200.558044,63.0089048 201.077353,63.5289048 201.077353,64.4714048 L201.077353,94.0464048 C201.077353,104.446405 192.898232,109.353905 184.589283,109.353905 C176.897014,109.353905 169.626684,105.161405 168.685436,98.1739048 C168.620523,97.1664048 169.204746,96.6464048 170.145994,96.6464048 L174.268011,96.6464048 C175.144346,96.6464048 175.566284,97.1014048 175.825939,97.9464048 C176.604903,100.513905 179.655845,102.983905 184.589283,102.983905 C190.691168,102.983905 194.196505,99.6689048 194.196505,94.0464048 L194.196505,90.0625552 C191.745366,93.5316049 187.882354,95.7045544 182.673682,95.7045544 C173.845424,95.7045544 166.542637,88.2620544 166.542637,78.9345544 C166.542637,69.6070544 173.845424,62.1645544 182.673682,62.1645544 C187.882354,62.1645544 191.745366,64.337504 194.196505,67.8065536 L194.196505,64.4727041 C194.196505,63.5302041 194.715815,63.0102041 195.657063,63.0102041 L199.616796,63.0102041 Z M183.875233,89.1389048 C189.782376,89.1389048 194.196505,84.7839048 194.196505,78.9339048 C194.196505,73.0839048 189.782376,68.7289048 183.875233,68.7289048 C177.96809,68.7289048 173.553961,73.0839048 173.553961,78.9339048 C173.553961,84.7839048 177.96809,89.1389048 183.875233,89.1389048 Z M223.755701,62.1652041 C233.460293,62.1652041 239.821832,69.9652041 239.821832,79.3252041 C239.821832,79.8777041 239.789375,80.3977041 239.756918,80.9177041 C239.659548,81.8602041 239.075325,82.2827041 238.198991,82.2827041 L214.010862,82.2827041 C215.077393,87.6094539 219.035828,90.3427041 223.982899,90.3427041 C227.066298,90.3427041 229.630387,89.0427041 231.026031,87.2227041 C231.54534,86.6702041 232.032193,86.3452041 232.811157,86.3452041 L236.965631,86.3127041 C238.036706,86.3127041 238.620929,86.9627041 238.198991,87.8727041 C235.829642,93.1702041 230.506722,96.3552041 223.885528,96.3552041 C213.531799,96.3552041 206.748321,89.0102041 206.748321,79.2602041 C206.748321,69.6402041 213.596713,62.1652041 223.755701,62.1652041 Z M213.984247,76.4977041 L232.769611,76.4977041 C231.849784,70.9629545 227.902385,68.5677041 223.723893,68.5677041 C218.489255,68.5677041 214.938478,71.6350542 213.984247,76.4977041 Z M261.331733,62.1652041 C267.368704,62.1652041 272.042488,66.7802041 272.042488,74.5802041 L272.042488,94.0477041 C272.042488,94.9902041 271.523178,95.5102041 270.58193,95.5102041 L266.49237,95.5102041 C265.551121,95.5102041 265.031812,94.9902041 265.031812,94.0477041 L265.031812,75.0027041 C265.031812,70.8102041 262.500179,68.7302041 259.092212,68.7302041 C255.42459,68.7302041 252.113994,70.9077041 252.113994,76.8552041 L252.113994,94.0477041 C252.113994,94.9902041 251.594684,95.5102041 250.653436,95.5102041 L246.563875,95.5102041 C245.622627,95.5102041 245.103318,94.9902041 245.103318,94.0477041 L245.103318,64.4727041 C245.103318,63.5302041 245.622627,63.0102041 246.563875,63.0102041 L250.653436,63.0102041 C251.594684,63.0102041 252.113994,63.5302041 252.113994,64.4727041 L252.113994,66.6898541 C254.192529,63.5269539 257.364211,62.1652041 261.331733,62.1652041 Z M293.909414,62.1652041 C303.614007,62.1652041 309.975546,69.9652041 309.975546,79.3252041 C309.975546,79.8777041 309.943089,80.3977041 309.910632,80.9177041 C309.813261,81.8602041 309.229038,82.2827041 308.352704,82.2827041 L284.164576,82.2827041 C285.231107,87.6094539 289.189541,90.3427041 294.136612,90.3427041 C297.220011,90.3427041 299.784101,89.0427041 301.179744,87.2227041 C301.699054,86.6702041 302.185906,86.3452041 302.96487,86.3452041 L307.119344,86.3127041 C308.19042,86.3127041 308.774643,86.9627041 308.352704,87.8727041 C305.983355,93.1702041 300.660435,96.3552041 294.039242,96.3552041 C283.685513,96.3552041 276.902035,89.0102041 276.902035,79.2602041 C276.902035,69.6402041 283.750426,62.1652041 293.909414,62.1652041 Z M284.137961,76.4977041 L302.923324,76.4977041 C302.003498,70.9629545 298.056098,68.5677041 293.877606,68.5677041 C288.642969,68.5677041 285.092191,71.6350542 284.137961,76.4977041 Z M330.12226,62.5227041 C331.095316,62.3927041 331.614625,62.9777041 331.614625,63.9202041 L331.614625,68.5352041 C331.614625,69.4452041 331.225144,69.9652041 330.54355,69.9652041 C326.291705,70.0627041 322.267058,72.4027041 322.267058,78.8052041 L322.267058,94.0477041 C322.267058,94.9902041 321.747749,95.5102041 320.806501,95.5102041 L316.71694,95.5102041 C315.775692,95.5102041 315.256383,94.9902041 315.256383,94.0477041 L315.256383,64.4727041 C315.256383,63.5302041 315.775692,63.0102041 316.71694,63.0102041 L320.806501,63.0102041 C321.747749,63.0102041 322.267058,63.5302041 322.267058,64.4727041 L322.267058,67.8832542 C323.984024,64.4480038 326.82205,62.8769539 330.12226,62.5227041 Z M367.438638,64.4727021 L367.438638,94.0477021 C367.438638,94.9902021 366.919329,95.5102021 365.978081,95.5102021 L361.88852,95.5102021 C360.947272,95.5102021 360.427963,94.9902021 360.427963,94.0477021 L360.427963,90.8458025 C357.97163,94.2576528 354.153408,96.3552031 349.036264,96.3552031 C340.208006,96.3552031 332.905219,88.9127031 332.905219,79.2602031 C332.905219,69.6077031 340.208006,62.1652031 349.036264,62.1652031 C354.153408,62.1652031 357.97163,64.2627534 360.427963,67.6746037 L360.427963,64.4727041 C360.427963,63.5302041 360.947272,63.0102041 361.88852,63.0102041 L365.978081,63.0102041 C366.919329,63.0102021 367.438638,63.5302021 367.438638,64.4727021 Z M350.171604,89.6602021 C356.013834,89.6602021 360.427963,85.3052021 360.427963,79.2602021 C360.427963,73.2152021 356.013834,68.8602021 350.171604,68.8602021 C344.329375,68.8602021 339.915246,73.2152021 339.915246,79.2602021 C339.915246,85.3052021 344.329375,89.6602021 350.171604,89.6602021 Z M389.500306,63.0102041 C390.441554,63.0102041 390.960863,63.5302041 390.960863,64.4727041 L390.960863,68.3077041 C390.960863,69.2502041 390.441554,69.7702041 389.500306,69.7702041 L384.988806,69.7702041 L384.988806,94.0477041 C384.988806,94.9902041 384.469497,95.5102041 383.528249,95.5102041 L379.438688,95.5102041 C378.49744,95.5102041 377.978131,94.9902041 377.978131,94.0477041 L377.978131,69.7702041 L373.434174,69.7702041 C372.492926,69.7702041 371.973617,69.2502041 371.973617,68.3077041 L371.973617,64.4727041 C371.973617,63.5302041 372.492926,63.0102041 373.434174,63.0102041 L377.978131,63.0102041 L377.978131,54.0727041 C377.978131,53.1302041 378.49744,52.6102041 379.438688,52.6102041 L383.528249,52.6102041 C384.469497,52.6102041 384.988806,53.1302041 384.988806,54.0727041 L384.988806,63.0102041 L389.500306,63.0102041 Z M409.874218,96.3552041 C400.364367,96.3552041 392.737011,88.9127041 392.737011,79.2602041 C392.737011,69.6077041 400.364367,62.1652041 409.874218,62.1652041 C419.384069,62.1652041 427.011425,69.6077041 427.011425,79.2602041 C427.011425,88.9127041 419.384069,96.3552041 409.874218,96.3552041 Z M409.874218,89.5302041 C415.58662,89.5302041 420.000749,85.1752041 420.000749,79.2602041 C420.000749,73.3452041 415.58662,68.9902041 409.874218,68.9902041 C404.161816,68.9902041 399.747687,73.3452041 399.747687,79.2602041 C399.747687,85.1752041 404.161816,89.5302041 409.874218,89.5302041 Z M447.515164,62.5227041 C448.488221,62.3927041 449.00753,62.9777041 449.00753,63.9202041 L449.00753,68.5352041 C449.00753,69.4452041 448.618048,69.9652041 447.936454,69.9652041 C443.68461,70.0627041 439.659963,72.4027041 439.659963,78.8052041 L439.659963,94.0477041 C439.659963,94.9902041 439.140653,95.5102041 438.199405,95.5102041 L434.109844,95.5102041 C433.168596,95.5102041 432.649287,94.9902041 432.649287,94.0477041 L432.649287,64.4727041 C432.649287,63.5302041 433.168596,63.0102041 434.109844,63.0102041 L438.199405,63.0102041 C439.140653,63.0102041 439.659963,63.5302041 439.659963,64.4727041 L439.659963,67.8832542 C441.376929,64.4480038 444.214954,62.8769539 447.515164,62.5227041 Z" id="generator-copy-6" fill="#363E4E"></path>
            </g>
        </g>
    </g>
</svg>